<svg width="160" height="42" viewBox="0 0 160 42" fill="none" xmlns="http://www.w3.org/2000/svg">
<g clip-path="url(#clip0_3018:4591)">
<path fill-rule="evenodd" clip-rule="evenodd" d="M77.1121 26.84V10.056C77.1121 3.624 72.8881 0.223999 67.9921 0.223999C63.0561 0.223999 58.8721 3.664 58.8721 10.056V26.84H64.4081V9.72C64.4081 7.032 65.7201 5.456 68.0001 5.456C70.2801 5.456 71.5921 7.024 71.5921 9.72V12.264H65.9121V17.496H71.5921V26.84H77.1121Z" fill="black"/>
<path fill-rule="evenodd" clip-rule="evenodd" d="M51.9199 26.84H56.9279V21.456H53.4159C51.7679 21.456 49.9359 21.608 49.9359 18.392V0.671997H44.3999V18.656C44.3999 22.128 44.8479 26.84 51.9199 26.84Z" fill="black"/>
<path fill-rule="evenodd" clip-rule="evenodd" d="M130.24 11.104H117.16V15.96H124.416C123.672 19.176 121.016 21.68 117.272 21.68C112.712 21.68 109.456 18.128 109.456 13.528C109.456 9.12 112.632 5.376 117.528 5.376C118.464 5.376 121.6 5.528 124.184 8.104L127.696 4.064C124.224 0.672 120.152 0 117.384 0C109.496 0 103.928 6.128 103.928 13.536C103.928 20.824 109.576 27.072 117.272 27.072C123.592 27.072 130.24 22.512 130.24 13.28V11.104Z" fill="black"/>
<path fill-rule="evenodd" clip-rule="evenodd" d="M146.464 27.064C153.976 27.064 160 21.048 160 13.528C160 6.008 153.984 0 146.464 0C138.952 0 132.928 6.016 132.928 13.536C132.928 21.056 138.952 27.064 146.464 27.064ZM146.464 5.384C150.952 5.384 154.464 9.008 154.464 13.536C154.464 18.064 150.952 21.688 146.464 21.688C141.976 21.688 138.464 18.064 138.464 13.536C138.464 9.008 141.984 5.384 146.464 5.384Z" fill="black"/>
<path fill-rule="evenodd" clip-rule="evenodd" d="M94.6482 26.856L100.472 26.832L95.8882 15.752C97.3122 14.184 98.2722 14.072 99.3762 11.744C100.184 10.048 100.224 7.44001 99.5522 5.56801C98.2402 1.90401 95.0802 0.208008 90.0882 0.208008H80.5602V5.21601H87.5362C90.1842 5.21601 93.7682 5.11201 94.0642 8.49601C94.2962 11.152 92.4242 12.656 89.8962 12.664L80.5522 12.656V26.864L86.4322 26.848L86.4162 18.488H90.6162L93.9682 26.056C94.2882 26.664 94.1042 26.624 94.6482 26.856Z" fill="black"/>
<path fill-rule="evenodd" clip-rule="evenodd" d="M69.4241 34.9199H66.1361V32.0079H64.9521V38.9919H66.1361V35.9039H69.4241V38.9919H70.6081V32.0079H69.4241V34.9199Z" fill="black"/>
<path fill-rule="evenodd" clip-rule="evenodd" d="M53.8961 31.864C52.9361 31.864 52.1521 32.184 51.5441 32.832C50.9441 33.48 50.6401 34.392 50.6401 35.56C50.6401 36.696 50.9361 37.576 51.5361 38.2C52.1361 38.832 52.9441 39.144 53.9601 39.144C54.7681 39.144 55.4321 38.944 55.9521 38.552C56.4721 38.16 56.8321 37.608 57.0161 36.896L55.7921 36.736C55.6161 37.24 55.3681 37.608 55.0641 37.832C54.7601 38.064 54.3921 38.176 53.9521 38.176C53.3681 38.176 52.8881 37.976 52.4961 37.568C52.1041 37.16 51.8881 36.576 51.8481 35.808H57.0481C57.0561 35.672 57.0561 35.56 57.0561 35.496C57.0561 34.344 56.7601 33.456 56.1681 32.816C55.5921 32.176 54.8321 31.864 53.8961 31.864ZM51.9281 34.84C51.9681 34.232 52.1761 33.744 52.5441 33.376C52.9121 33.016 53.3681 32.832 53.9121 32.832C54.5121 32.832 55.0001 33.064 55.3761 33.52C55.6241 33.816 55.7681 34.256 55.8241 34.84H51.9281Z" fill="black"/>
<path fill-rule="evenodd" clip-rule="evenodd" d="M44.3999 32.9919H46.6399V38.9919H47.8239V32.9919H50.0559V32.0079H44.3999V32.9919Z" fill="black"/>
<path fill-rule="evenodd" clip-rule="evenodd" d="M63.792 32.0079H62.344L61.184 33.6559C61.024 33.8799 60.848 34.1359 60.648 34.4159C60.536 34.2159 60.376 33.9679 60.168 33.6559L59.064 32.0079H57.608L59.968 35.3759L57.416 38.9919H58.864L60.728 36.3199L61.056 36.8399L62.504 38.9919H63.944L61.416 35.3759L63.792 32.0079Z" fill="black"/>
<path fill-rule="evenodd" clip-rule="evenodd" d="M135.08 32.0079H130.208C130.24 34.8879 129.848 36.8879 129.008 38.0239H128.392V40.9679H129.36V38.9919H134.864V40.9679H135.832V38.0239H135.08V32.0079ZM133.896 38.0239H130.144C130.76 36.9359 131.104 35.2559 131.192 32.9919H133.896V38.0239Z" fill="black"/>
<path fill-rule="evenodd" clip-rule="evenodd" d="M157.064 36.0799C156.872 36.5919 156.712 37.1199 156.576 37.6559C156.424 37.0879 156.256 36.5519 156.064 36.0399L154.608 32.0079H153.344L155.992 39.0159C155.944 39.1439 155.912 39.2399 155.888 39.3039C155.72 39.7759 155.6 40.0719 155.528 40.1839C155.424 40.3439 155.296 40.4639 155.136 40.5519C154.976 40.6399 154.768 40.6879 154.504 40.6879C154.312 40.6879 154.088 40.6559 153.824 40.5839L153.96 41.6799C154.24 41.7759 154.496 41.8239 154.728 41.8239C155.104 41.8239 155.432 41.7359 155.704 41.5519C155.976 41.3679 156.216 41.0879 156.432 40.6959C156.592 40.4079 156.816 39.8799 157.096 39.1199L159.736 32.0159H158.552L157.064 36.0799Z" fill="black"/>
<path fill-rule="evenodd" clip-rule="evenodd" d="M139.96 31.864C139.096 31.864 138.36 32.12 137.76 32.64C137.04 33.264 136.68 34.216 136.68 35.504C136.68 36.68 136.984 37.584 137.584 38.208C138.184 38.832 138.976 39.144 139.952 39.144C140.56 39.144 141.12 39 141.64 38.72C142.16 38.432 142.552 38.032 142.816 37.52C143.088 37.008 143.216 36.304 143.216 35.408C143.216 34.304 142.912 33.432 142.304 32.808C141.704 32.176 140.92 31.864 139.96 31.864ZM141.432 37.504C141.04 37.952 140.552 38.176 139.96 38.176C139.368 38.176 138.872 37.952 138.48 37.512C138.088 37.072 137.896 36.4 137.896 35.512C137.896 34.624 138.088 33.952 138.48 33.512C138.872 33.072 139.36 32.848 139.96 32.848C140.544 32.848 141.032 33.072 141.424 33.512C141.816 33.952 142.016 34.608 142.016 35.472C142.016 36.384 141.824 37.056 141.432 37.504Z" fill="black"/>
<path fill-rule="evenodd" clip-rule="evenodd" d="M148.328 37.5999L146.48 32.0079H144.656V38.9919H145.816V33.1039L147.76 38.9919H148.816L150.88 33.3679V38.9919H152.064V32.0079H150.368L148.328 37.5999Z" fill="black"/>
<path fill-rule="evenodd" clip-rule="evenodd" d="M87.232 36.0719V34.5039C87.232 33.9839 87.208 33.6159 87.176 33.4159C87.104 33.0879 86.984 32.8239 86.808 32.6079C86.632 32.3919 86.36 32.2159 85.984 32.0799C85.608 31.9359 85.12 31.8719 84.528 31.8719C83.928 31.8719 83.392 31.9519 82.936 32.1199C82.48 32.2879 82.128 32.5199 81.888 32.8239C81.648 33.1279 81.472 33.5279 81.368 34.0239L82.528 34.1839C82.656 33.6879 82.848 33.3439 83.12 33.1439C83.384 32.9519 83.8 32.8479 84.36 32.8479C84.96 32.8479 85.408 32.9839 85.712 33.2479C85.936 33.4479 86.048 33.7839 86.048 34.2639C86.048 34.3039 86.048 34.4079 86.04 34.5679C85.592 34.7279 84.88 34.8639 83.928 34.9759C83.456 35.0319 83.104 35.0959 82.872 35.1519C82.552 35.2399 82.272 35.3679 82.016 35.5439C81.768 35.7119 81.56 35.9359 81.4 36.2239C81.248 36.5039 81.168 36.8159 81.168 37.1599C81.168 37.7439 81.376 38.2159 81.784 38.5919C82.2 38.9679 82.784 39.1519 83.552 39.1519C84.016 39.1519 84.456 39.0719 84.856 38.9199C85.264 38.7679 85.688 38.5039 86.128 38.1279C86.16 38.4639 86.24 38.7519 86.36 38.9999H87.6C87.456 38.7279 87.36 38.4479 87.312 38.1599C87.256 37.8559 87.232 37.1679 87.232 36.0719ZM86.024 35.9279C86.024 36.4479 85.96 36.8399 85.832 37.1039C85.664 37.4479 85.4 37.7199 85.048 37.9119C84.688 38.1119 84.288 38.2079 83.832 38.2079C83.376 38.2079 83.024 38.1039 82.784 37.8959C82.544 37.6879 82.424 37.4239 82.424 37.1119C82.424 36.9039 82.48 36.7199 82.592 36.5519C82.704 36.3839 82.856 36.2559 83.056 36.1679C83.256 36.0799 83.6 35.9999 84.096 35.9359C84.96 35.8159 85.6 35.6639 86.032 35.4879L86.024 35.9279Z" fill="black"/>
<path fill-rule="evenodd" clip-rule="evenodd" d="M108.784 31.864C107.92 31.864 107.184 32.12 106.584 32.64C105.864 33.264 105.504 34.216 105.504 35.504C105.504 36.68 105.808 37.584 106.408 38.208C107.008 38.832 107.8 39.144 108.776 39.144C109.384 39.144 109.944 39 110.464 38.72C110.976 38.432 111.376 38.032 111.64 37.52C111.912 37.008 112.04 36.304 112.04 35.408C112.04 34.304 111.736 33.432 111.128 32.808C110.528 32.176 109.744 31.864 108.784 31.864ZM110.256 37.504C109.864 37.952 109.376 38.176 108.784 38.176C108.192 38.176 107.696 37.952 107.304 37.512C106.912 37.072 106.72 36.4 106.72 35.512C106.72 34.624 106.912 33.952 107.304 33.512C107.696 33.072 108.184 32.848 108.784 32.848C109.368 32.848 109.856 33.072 110.248 33.512C110.64 33.952 110.84 34.608 110.84 35.472C110.84 36.384 110.648 37.056 110.256 37.504Z" fill="black"/>
<path fill-rule="evenodd" clip-rule="evenodd" d="M113.44 38.9919H114.624V32.9919H117.464V32.0079H113.44V38.9919Z" fill="black"/>
<path fill-rule="evenodd" clip-rule="evenodd" d="M103.536 35.3599C103.816 35.1919 104.024 34.9839 104.16 34.7359C104.296 34.4879 104.368 34.1999 104.368 33.8639C104.368 33.4479 104.248 33.0879 104.016 32.7919C103.784 32.4959 103.504 32.2879 103.176 32.1759C102.848 32.0639 102.352 32.0079 101.68 32.0079H98.9521V38.9919H102.096C102.912 38.9919 103.536 38.8319 103.968 38.5119C104.4 38.1919 104.632 37.7039 104.68 37.0399C104.68 36.6319 104.576 36.2719 104.36 35.9759C104.136 35.6799 103.864 35.4719 103.536 35.3599ZM100.136 32.9919H101.432C102.056 32.9919 102.504 33.0639 102.768 33.2079C103.024 33.3519 103.16 33.6079 103.16 33.9759C103.16 34.1999 103.088 34.3919 102.936 34.5519C102.784 34.7119 102.616 34.8159 102.432 34.8719C102.248 34.9199 101.904 34.9519 101.4 34.9519H100.144V32.9919H100.136ZM103.072 37.7919C102.824 37.9439 102.36 38.0239 101.696 38.0239H100.144V35.9279H101.576C102.088 35.9279 102.456 35.9519 102.688 36.0079C102.92 36.0559 103.104 36.1759 103.256 36.3679C103.4 36.5599 103.472 36.7679 103.472 36.9919C103.448 37.3679 103.32 37.6399 103.072 37.7919Z" fill="black"/>
<path fill-rule="evenodd" clip-rule="evenodd" d="M120.88 31.864C120.016 31.864 119.28 32.12 118.68 32.64C117.96 33.264 117.6 34.216 117.6 35.504C117.6 36.68 117.904 37.584 118.504 38.208C119.104 38.832 119.896 39.144 120.872 39.144C121.48 39.144 122.04 39 122.56 38.72C123.072 38.432 123.472 38.032 123.736 37.52C124.008 37.008 124.136 36.304 124.136 35.408C124.136 34.304 123.832 33.432 123.224 32.808C122.624 32.176 121.84 31.864 120.88 31.864ZM122.352 37.504C121.96 37.952 121.472 38.176 120.88 38.176C120.288 38.176 119.792 37.952 119.4 37.512C119.008 37.072 118.816 36.4 118.816 35.512C118.816 34.624 119.008 33.952 119.4 33.512C119.792 33.072 120.28 32.848 120.88 32.848C121.464 32.848 121.952 33.072 122.344 33.512C122.736 33.952 122.936 34.608 122.936 35.472C122.936 36.384 122.744 37.056 122.352 37.504Z" fill="black"/>
<path fill-rule="evenodd" clip-rule="evenodd" d="M92.168 32.9919H94.4V38.9919H95.584V32.9919H97.824V32.0079H92.168V32.9919Z" fill="black"/>
<path d="M73.5683 32.0079H72.3843V38.9919H73.5683V32.0079Z" fill="black"/>
<path d="M73.5683 29.36H72.3843V30.704H73.5683V29.36Z" fill="black"/>
<path fill-rule="evenodd" clip-rule="evenodd" d="M77.6881 35.4079C78.0001 35.2639 78.2321 35.1039 78.3761 34.9279C78.5281 34.7519 78.6881 34.4399 78.8721 33.9759C79.0641 33.4959 79.2001 33.2079 79.2961 33.1119C79.3841 33.0239 79.5841 32.9759 79.8961 32.9759L80.2241 32.9839V32.0079H79.9841C79.5681 32.0079 79.2641 32.0399 79.0721 32.1039C78.8801 32.1679 78.7201 32.2799 78.5681 32.4559C78.4241 32.6319 78.2321 32.9919 78.0001 33.5439C77.7041 34.2399 77.4801 34.6639 77.3281 34.8079C77.1761 34.9519 76.9121 35.0239 76.5361 35.0239V32.0079H75.3521V38.9919H76.5361V35.7599C76.8001 35.7599 77.0321 35.8319 77.2241 35.9679C77.4161 36.1039 77.6401 36.3919 77.8961 36.8319L79.1761 38.9919H80.4801L79.1841 36.8239C78.7041 36.0159 78.2001 35.5439 77.6881 35.4079Z" fill="black"/>
<path d="M36.8368 32.368C43.2479 23.2061 41.0178 10.5817 31.8558 4.17065C22.6939 -2.24037 10.0695 -0.0102982 3.65847 9.15166C-2.75255 18.3136 -0.522474 30.938 8.63948 37.349C17.8014 43.76 30.4258 41.53 36.8368 32.368Z" fill="black"/>
<path fill-rule="evenodd" clip-rule="evenodd" d="M25.7359 6.97607C31.1359 9.15207 34.9439 14.4321 34.9439 20.6081C34.9439 28.7201 28.3679 35.2961 20.2559 35.2961C12.1439 35.2961 5.56787 28.7201 5.56787 20.6081C5.56787 14.4321 9.37587 9.15207 14.7759 6.97607V10.8481C11.3679 12.7681 9.06387 16.4161 9.06387 20.6081C9.06387 26.7921 14.0719 31.8001 20.2559 31.8001C26.4399 31.8001 31.4479 26.7921 31.4479 20.6081C31.4479 16.4161 29.1439 12.7681 25.7359 10.8481V6.97607Z" fill="#FFD500"/>
<path d="M20.2481 21.1441C18.9041 21.1441 17.8081 20.0481 17.8081 18.7041V6.22406C17.8081 4.88006 18.9041 3.78406 20.2481 3.78406C21.5921 3.78406 22.6881 4.88006 22.6881 6.22406V18.7121C22.6881 20.0561 21.6001 21.1441 20.2481 21.1441Z" fill="#FFD500"/>
</g>
<defs>
<clipPath id="clip0_3018:4591">
<rect width="160" height="41.824" fill="white"/>
</clipPath>
</defs>
</svg>
